<svg width="26" height="25" viewBox="0 0 26 25" fill="none" xmlns="http://www.w3.org/2000/svg">
<path fill-rule="evenodd" clip-rule="evenodd" d="M10.1642 21.4537C10.4032 21.9017 10.6425 22.3053 10.8712 22.6629C8.44089 22.1164 6.33202 20.7204 4.87274 18.8032C5.83584 18.2608 7.06937 17.6986 8.5523 17.2872C8.97377 18.9403 9.56838 20.3365 10.1642 21.4537ZM12.0025 20.4733C11.4849 19.5029 10.9661 18.291 10.5924 16.855C11.3969 16.7356 12.2558 16.6667 13.1668 16.6667C14.0776 16.6667 14.9365 16.7356 15.741 16.8549C15.3672 18.291 14.8485 19.5029 14.3308 20.4733C13.9158 21.2515 13.5024 21.8728 13.1667 22.3274C12.831 21.8728 12.4175 21.2515 12.0025 20.4733ZM10.0417 12.5C10.0417 13.3112 10.0962 14.0812 10.1925 14.8082C11.1207 14.6658 12.113 14.5833 13.1668 14.5833C14.2204 14.5833 15.2128 14.6657 16.1408 14.8082C16.2371 14.0811 16.2917 13.3112 16.2917 12.5C16.2917 11.6887 16.2371 10.9189 16.1408 10.1918C15.2128 10.3342 14.2204 10.4167 13.1668 10.4167C12.113 10.4167 11.1207 10.3342 10.1925 10.1918C10.0962 10.9187 10.0417 11.6887 10.0417 12.5ZM8.14843 9.76222C8.02745 10.6219 7.95832 11.5353 7.95832 12.5C7.95832 13.4647 8.02745 14.3781 8.14843 15.2378C6.37968 15.7126 4.91502 16.3822 3.78227 17.0265C3.1208 15.6578 2.74999 14.1222 2.74999 12.5C2.74999 10.8778 3.1208 9.34228 3.78225 7.97344C4.91488 8.61767 6.37957 9.2873 8.14843 9.76222ZM10.5924 8.14507C11.3969 8.26447 12.2558 8.33333 13.1668 8.33333C14.0776 8.33333 14.9365 8.26449 15.741 8.1451C15.3672 6.7091 14.8485 5.49713 14.3308 4.52667C13.9158 3.74853 13.5024 3.12717 13.1667 2.67267C12.831 3.12717 12.4175 3.74853 12.0025 4.52664C11.4849 5.4971 10.9661 6.70907 10.5924 8.14507ZM18.1849 9.76236C18.3058 10.6221 18.375 11.5354 18.375 12.5C18.375 13.4647 18.3058 14.3779 18.1849 15.2376C19.9536 15.7126 21.4183 16.3822 22.5511 17.0265C23.2125 15.6576 23.5833 14.1221 23.5833 12.5C23.5833 10.8779 23.2125 9.34232 22.5511 7.97351C21.4185 8.61773 19.9537 9.28736 18.1849 9.76236ZM21.4605 6.19692C20.4974 6.73932 19.2639 7.30146 17.7811 7.71289C17.3596 6.05978 16.765 4.66346 16.1692 3.54628C15.9301 3.09829 15.6908 2.69479 15.4621 2.33708C17.8925 2.88365 20.0014 4.27967 21.4605 6.19692ZM8.55228 7.71285C7.06945 7.3014 5.83596 6.73926 4.87275 6.19685C6.33202 4.27964 8.44089 2.88365 10.8711 2.33708C10.6425 2.69479 10.4032 3.09828 10.1642 3.54625C9.56838 4.66343 8.97377 6.05974 8.55228 7.71285ZM17.7811 17.2871C17.3596 18.9403 16.765 20.3365 16.1692 21.4537C15.9301 21.9017 15.6908 22.3053 15.4621 22.6629C17.8925 22.1164 20.0014 20.7203 21.4607 18.8031C20.4975 18.2607 19.264 17.6986 17.7811 17.2871ZM13.1667 25C20.0703 25 25.6667 19.4036 25.6667 12.5C25.6667 5.59644 20.0703 0 13.1667 0C6.2631 0 0.666656 5.59644 0.666656 12.5C0.666656 19.4036 6.2631 25 13.1667 25Z" fill="#F8FAFC"/>
</svg>
